<?xml version="1.0" encoding="utf-8"?>
<!-- Generator: Adobe Illustrator 26.1.0, SVG Export Plug-In . SVG Version: 6.00 Build 0)  -->
<svg version="1.1" id="Layer_1" xmlns="http://www.w3.org/2000/svg" xmlns:xlink="http://www.w3.org/1999/xlink" x="0px" y="0px"
	 viewBox="0 0 50 50" style="enable-background:new 0 0 50 50;" xml:space="preserve">
<style type="text/css">
	.st0{fill:url(#SVGID_1_);}
	.st1{fill:url(#SVGID_00000137853494143515761200000004273170707875405720_);}
	.st2{fill:url(#SVGID_00000058555863409979747540000013662987852628656278_);}
</style>
<g>
	<linearGradient id="SVGID_1_" gradientUnits="userSpaceOnUse" x1="0.2423" y1="19.8453" x2="24.6606" y2="19.8453">
		<stop  offset="0" style="stop-color:#5B4DFF"/>
		<stop  offset="0.5056" style="stop-color:#1C75BC"/>
		<stop  offset="1" style="stop-color:#000000"/>
	</linearGradient>
	<path class="st0" d="M24.66,0.24l-1.61,3.19l-0.16,0.32C18.19,4.22,13.95,6.2,10.64,9.2c-1.44,1.31-2.71,2.82-3.75,4.48
		c-1.37,2.18-2.35,4.63-2.86,7.26C3.79,22.26,3.66,23.61,3.66,25c0,3.04,0.63,5.92,1.78,8.54c0.36,0.83,0.77,1.63,1.23,2.39
		l-1.11,2.19l-0.67,1.32c-0.31-0.43-0.61-0.87-0.89-1.32c-0.9-1.44-1.66-2.97-2.25-4.59C0.78,30.87,0.24,28,0.24,25
		c0-1.38,0.11-2.74,0.33-4.06c0.42-2.57,1.24-5.02,2.4-7.26c0.82-1.6,1.82-3.11,2.96-4.48c3.88-4.68,9.46-7.91,15.79-8.75
		C22.69,0.33,23.67,0.25,24.66,0.24z"/>
	
		<linearGradient id="SVGID_00000047775998441654815840000003267847888841255558_" gradientUnits="userSpaceOnUse" x1="14.1848" y1="21.2246" x2="52.6672" y2="37.2725">
		<stop  offset="0" style="stop-color:#5B4DFF"/>
		<stop  offset="0.5056" style="stop-color:#1C75BC"/>
		<stop  offset="1" style="stop-color:#000000"/>
	</linearGradient>
	<path style="fill:url(#SVGID_00000047775998441654815840000003267847888841255558_);" d="M43.43,38.12l-0.61-1.37l-1.43-3.22
		L37.58,25l-1.81-4.06l-3.23-7.26l-2-4.48l-1.72-3.85l-0.65-1.47l-1.6-3.6c-0.04,0-0.07-0.01-0.11-0.01l-1.7,3.37L23.9,5.34
		L21.96,9.2l-2.26,4.48l-3.66,7.26L14,25l-4.3,8.54l-2,3.96l-0.32,0.63l-1.38,2.74c0.99,1.18,2.09,2.28,3.28,3.26
		c4.27,3.52,9.75,5.63,15.73,5.63c6.13,0,11.74-2.23,16.06-5.92c1.23-1.05,2.36-2.22,3.36-3.49L43.43,38.12z M25,46.34
		c-5.43,0-10.38-2.02-14.14-5.36l1.44-2.86l2.31-4.59l4.3-8.54l2.04-4.06l3.66-7.26l1.59-3.16l1.41,3.16l3.24,7.26L32.66,25
		l3.81,8.54l2.05,4.59l1.09,2.44C35.79,44.15,30.65,46.34,25,46.34z"/>
	
		<linearGradient id="SVGID_00000121261312376232822000000003558547564685623973_" gradientUnits="userSpaceOnUse" x1="31.0903" y1="15.1774" x2="49.4893" y2="25.7473">
		<stop  offset="0" style="stop-color:#5B4DFF"/>
		<stop  offset="0.5056" style="stop-color:#3F368E"/>
		<stop  offset="1" style="stop-color:#5B4DFF"/>
	</linearGradient>
	<path style="fill:url(#SVGID_00000121261312376232822000000003558547564685623973_);" d="M49.76,25c0,3-0.53,5.88-1.51,8.54
		c-0.59,1.62-1.35,3.15-2.25,4.59c-0.13,0.21-0.26,0.42-0.4,0.62l-0.28-0.62l-1.42-3.19c0.24-0.46,0.47-0.92,0.67-1.4
		c1.14-2.61,1.78-5.5,1.78-8.54c0-1.39-0.13-2.74-0.39-4.06c-0.5-2.62-1.49-5.07-2.86-7.26c-1.04-1.66-2.3-3.17-3.75-4.48
		c-2.55-2.32-5.67-4.03-9.12-4.9l-0.42-0.93l-1.28-2.88c0.84,0.12,1.67,0.28,2.49,0.49c5.19,1.3,9.73,4.23,13.04,8.23
		c1.14,1.38,2.14,2.88,2.96,4.48c1.15,2.24,1.98,4.68,2.4,7.26C49.64,22.26,49.76,23.62,49.76,25z"/>
</g>
</svg>
